#!OML:ASF F:\VICON\USERDATA\INSTALL\rory3\rory3.ASF
:FULLY-SPECIFIED
:DEGREES
1843
root 0.304119 16.5904 0.514477 0.650948 -20.0066 -2.91316
lowerback -2.63162 3.42294 -1.02628
upperback -7.74552 4.62777 1.93238
thorax -6.84609 2.41775 2.42903
lowerneck -10.8385 -5.58412 -14.1729
upperneck 26.7537 -9.65743 16.231
head 12.0616 -4.10104 7.28899
rclavicle 1.96921e-014 8.28684e-015
rhumerus -16.9621 37.442 -112.467
rradius 109.022
rwrist 27.4458
rhand 45.7739 6.57578
rfingers 7.12502
rthumb 66.9718 3.06686
lclavicle 1.96921e-014 8.28684e-015
lhumerus -29.8602 21.7568 79.561
lradius 136.202
lwrist -16.3509
lhand 33.9828 43.0547
lfingers 7.12502
lthumb 57.2476 59.4326
rfemur -12.9721 13.5373 20.4977
rtibia 37.8872
rfoot -26.3432 -1.71638
rtoes -21.8029
lfemur -7.71221 0.433267 -18.5878
ltibia 40.0571
lfoot -30.0856 15.0824
ltoes -16.6511
1844
root 0.304911 16.5941 0.517043 0.665689 -19.9408 -2.9118
lowerback -2.68874 3.35301 -1.09988
upperback -7.71167 4.5334 1.94802
thorax -6.7789 2.37563 2.49448
lowerneck -10.2993 -6.47481 -14.681
upperneck 26.2353 -10.7626 15.8321
head 11.9732 -4.72355 7.01407
rclavicle -1.97449e-014 -2.82523e-014
rhumerus -16.9818 37.5772 -112.597
rradius 109.061
rwrist 27.5005
rhand 45.8769 6.5986
rfingers 7.12502
rthumb 67.0488 3.2507
lclavicle -1.97449e-014 -2.82523e-014
lhumerus -29.8946 21.9425 79.4356
lradius 136.337
lwrist -16.2173
lhand 33.7116 43.1325
lfingers 7.12502
lthumb 57.0093 59.7108
rfemur -12.9635 13.5387 20.4915
rtibia 37.8866
rfoot -26.3336 -1.6522
rtoes -21.3351
lfemur -7.71794 0.355287 -18.5955
ltibia 40.0281
lfoot -30.0284 15.1178
ltoes -16.7313
1845
root 0.305568 16.5924 0.51794 0.670926 -19.889 -2.87376
lowerback -2.73569 3.30721 -1.22179
upperback -7.67789 4.47167 1.97556
thorax -6.72467 2.35319 2.5971
lowerneck -9.67134 -7.42537 -15.2735
upperneck 25.6605 -11.9512 15.4383
head 11.869 -5.39338 6.74263
rclavicle 2.85675e-014 7.7526e-015
rhumerus -16.9749 37.6592 -112.622
rradius 109.049
rwrist 27.49
rhand 45.97 6.87444
rfingers 7.12502
rthumb 67.1184 3.67316
lclavicle 2.85675e-014 7.7526e-015
lhumerus -29.9954 22.1256 79.2928
lradius 136.522
lwrist -16.1625
lhand 33.8093 43.2581
lfingers 7.12502
lthumb 57.0952 59.7645
rfemur -12.9782 13.547 20.4497
rtibia 37.8942
rfoot -26.3331 -1.71114
rtoes -21.3132
lfemur -7.75151 0.341987 -18.6349
ltibia 40.0267
lfoot -30.0633 15.0498
ltoes -16.7842
1846
root 0.307394 16.5885 0.520232 0.633605 -19.8209 -2.83588
lowerback -2.76454 3.27944 -1.31943
upperback -7.63882 4.43404 1.99274
thorax -6.67341 2.3407 2.67353
lowerneck -8.84589 -8.39031 -15.8025
upperneck 24.9781 -13.18 14.991
head 11.6836 -6.08727 6.43478
rclavicle 2.7364e-015 -9.75908e-015
rhumerus -16.9288 37.7004 -112.617
rradius 109.002
rwrist 27.3292
rhand 46.0403 7.03111
rfingers 7.12502
rthumb 67.1707 3.94107
lclavicle 2.7364e-015 -9.75908e-015
lhumerus -30.0606 22.2669 79.24
lradius 136.635
lwrist -16.1262
lhand 33.8363 43.3706
lfingers 7.12502
lthumb 57.1189 59.8571
rfemur -12.9397 13.4877 20.4072
rtibia 37.9064
rfoot -26.3749 -1.78621
rtoes -21.3821
lfemur -7.74021 0.29713 -18.6837
ltibia 40.0558
lfoot -30.1403 14.9951
ltoes -16.7365
1847
root 0.308953 16.5866 0.521608 0.631223 -19.7963 -2.90725
lowerback -2.76426 3.26142 -1.31754
upperback -7.60029 4.41126 2.02256
thorax -6.63304 2.32986 2.7056
lowerneck -8.04801 -9.34481 -16.3416
upperneck 24.3252 -14.4189 14.6046
head 11.5259 -6.77727 6.15742
rclavicle -6.52487e-014 -9.0447e-015
rhumerus -16.8769 37.7609 -112.645
rradius 109.013
rwrist 27.2086
rhand 46.207 7.05482
rfingers 7.12502
rthumb 67.2945 4.23081
lclavicle -6.52487e-014 -9.0447e-015
lhumerus -30.0324 22.3903 79.2134
lradius 136.66
lwrist -16.1554
lhand 34.0581 43.225
lfingers 7.12502
lthumb 57.3137 59.5466
rfemur -12.9093 13.47 20.4815
rtibia 37.9263
rfoot -26.409 -1.78288
rtoes -21.5151
lfemur -7.73395 0.265859 -18.6204
ltibia 40.1065
lfoot -30.1605 15.0654
ltoes -17.0198
1848
root 0.310486 16.5849 0.523155 0.622472 -19.7785 -2.97962
lowerback -2.71544 3.23157 -1.34726
upperback -7.60102 4.37423 2.08196
thorax -6.66729 2.31573 2.78265
lowerneck -7.06343 -10.2535 -17.272
upperneck 23.6205 -15.6611 14.5814
head 11.3872 -7.47785 6.09536
rclavicle -7.45831e-014 -7.12519e-015
rhumerus -17.0298 37.8245 -112.793
rradius 109.077
rwrist 27.152
rhand 46.3475 7.02804
rfingers 7.12502
rthumb 67.3984 4.43049
lclavicle -7.45831e-014 -7.12519e-015
lhumerus -30.1617 22.5256 79.1231
lradius 136.705
lwrist -16.2351
lhand 34.2009 43.1237
lfingers 7.12502
lthumb 57.4389 59.3382
rfemur -12.8741 13.4699 20.5608
rtibia 37.9429
rfoot -26.3781 -1.77758
rtoes -21.5771
lfemur -7.71901 0.228238 -18.5547
ltibia 40.16
lfoot -30.2123 15.0317
ltoes -16.7407
1849
root 0.312504 16.5844 0.525448 0.63505 -19.7202 -2.97957
lowerback -2.74548 3.20002 -1.41636
upperback -7.60166 4.33363 2.12852
thorax -6.65802 2.3016 2.87302
lowerneck -6.04852 -11.1463 -18.1602
upperneck 22.9089 -16.8998 14.52
head 11.2454 -8.17506 6.01245
rclavicle -3.3166e-014 -3.40791e-014
rhumerus -17.17 37.8842 -112.85
rradius 109.109
rwrist 27.1254
rhand 46.3958 7.15463
rfingers 7.12502
rthumb 67.4341 4.63552
lclavicle -3.3166e-014 -3.40791e-014
lhumerus -30.2984 22.6614 79.0722
lradius 136.764
lwrist -16.2044
lhand 34.2381 43.018
lfingers 7.12502
lthumb 57.4715 59.2044
rfemur -12.8855 13.3971 20.5497
rtibia 37.9561
rfoot -26.4119 -1.79423
rtoes -21.5721
lfemur -7.75531 0.213826 -18.5577
ltibia 40.1991
lfoot -30.2316 14.9638
ltoes -16.4391
1850
root 0.314777 16.5828 0.526838 0.610344 -19.6383 -2.94314
lowerback -2.73848 3.17459 -1.52306
upperback -7.59781 4.30106 2.17567
thorax -6.6688 2.29393 2.98261
lowerneck -5.28928 -12.0445 -18.6487
upperneck 22.4085 -18.0873 14.0316
head 11.1441 -8.83484 5.70529
rclavicle -1.75738e-014 -3.27249e-014
rhumerus -17.2958 37.961 -112.867
rradius 109.125
rwrist 27.0641
rhand 46.4395 7.14366
rfingers 7.12502
rthumb 67.4663 4.69561
lclavicle -1.75738e-014 -3.27249e-014
lhumerus -30.4563 22.7411 79.0599
lradius 136.834
lwrist -16.1767
lhand 34.0421 42.9826
lfingers 7.12502
lthumb 57.2996 59.3162
rfemur -12.8547 13.3492 20.5089
rtibia 37.9616
rfoot -26.48 -1.83127
rtoes -21.5829
lfemur -7.76766 0.175049 -18.595
ltibia 40.2365
lfoot -30.2467 14.8226
ltoes -16.111
1851
root 0.316737 16.5814 0.530985 0.58319 -19.583 -2.90492
lowerback -2.78202 3.11811 -1.66201
upperback -7.57699 4.22794 2.25696
thorax -6.6348 2.26882 3.15091
lowerneck -4.84782 -12.903 -18.9596
upperneck 22.248 -19.1549 13.2378
head 11.1512 -9.43118 5.26904
rclavicle 1.50704e-014 1.08835e-014
rhumerus -17.4779 38.1026 -112.979
rradius 109.095
rwrist 27.0119
rhand 46.5125 7.18407
rfingers 7.12502
rthumb 67.52 4.85539
lclavicle 1.50704e-014 1.08835e-014
lhumerus -30.7563 22.8347 79.0081
lradius 136.909
lwrist -16.1589
lhand 33.7555 42.9255
lfingers 7.12502
lthumb 57.0479 59.4715
rfemur -12.8098 13.3305 20.465
rtibia 37.9629
rfoot -26.5067 -1.87026
rtoes -21.6171
lfemur -7.7699 0.171006 -18.6375
ltibia 40.2711
lfoot -30.1597 14.8809
ltoes -16.4507
1852
root 0.318525 16.5817 0.535301 0.655087 -19.506 -3.01409
lowerback -2.85915 3.05185 -1.66542
upperback -7.59303 4.14528 2.3768
thorax -6.61244 2.23253 3.28547
lowerneck -4.36103 -13.6965 -19.429
upperneck 22.172 -20.1768 12.6079
head 11.2042 -10.0058 4.92942
rclavicle -7.15625e-014 -1.09332e-015
rhumerus -17.6521 38.2677 -113.093
rradius 109.075
rwrist 27.026
rhand 46.5372 7.2818
rfingers 7.12502
rthumb 67.5382 4.99349
lclavicle -7.15625e-014 -1.09332e-015
lhumerus -31.0458 22.9497 78.9773
lradius 137.007
lwrist -16.187
lhand 33.6419 43.1136
lfingers 7.12502
lthumb 56.948 59.7429
rfemur -12.8216 13.2805 20.5649
rtibia 37.9454
rfoot -26.4768 -1.8984
rtoes -21.7077
lfemur -7.83814 0.162502 -18.5202
ltibia 40.3219
lfoot -30.0908 14.8778
ltoes -16.3565
1853
root 0.320703 16.5817 0.537244 0.710501 -19.4192 -3.08768
lowerback -2.9021 3.00286 -1.71573
upperback -7.61895 4.08558 2.49725
thorax -6.62574 2.21106 3.44387
lowerneck -3.37894 -14.4469 -20.1827
upperneck 21.6339 -21.2612 12.428
head 11.0913 -10.6166 4.8131
rclavicle -8.44835e-015 -2.52457e-014
rhumerus -17.7845 38.48 -113.124
rradius 109.086
rwrist 27.0959
rhand 46.438 7.26934
rfingers 7.12502
rthumb 67.4652 4.81889
lclavicle -8.44835e-015 -2.52457e-014
lhumerus -31.231 23.155 78.9734
lradius 137.052
lwrist -16.2167
lhand 33.706 43.0928
lfingers 7.12502
lthumb 57.0044 59.6751
rfemur -12.8329 13.2451 20.637
rtibia 37.9231
rfoot -26.4713 -1.95736
rtoes -21.6707
lfemur -7.89965 0.181629 -18.4295
ltibia 40.3747
lfoot -30.1566 14.7747
ltoes -16.4106
1854
root 0.322987 16.5796 0.537827 0.715697 -19.3541 -3.12486
lowerback -2.87388 2.9454 -1.75527
upperback -7.64388 4.01254 2.57635
thorax -6.6729 2.18097 3.54972
lowerneck -2.14681 -15.0879 -21.0634
upperneck 20.8462 -22.3117 12.6429
head 10.9087 -11.2019 4.88101
rclavicle 2.96935e-014 4.27387e-014
rhumerus -17.9903 38.6786 -113.255
rradius 109.088
rwrist 27.078
rhand 46.2779 7.15145
rfingers 7.12502
rthumb 67.347 4.44149
lclavicle 2.96935e-014 4.27387e-014
lhumerus -31.3784 23.3724 78.9135
lradius 137.067
lwrist -16.2132
lhand 33.6539 42.8858
lfingers 7.12502
lthumb 56.9585 59.5063
rfemur -12.7937 13.2005 20.6751
rtibia 37.8998
rfoot -26.4877 -2.02823
rtoes -21.7151
lfemur -7.92419 0.19884 -18.3765
ltibia 40.4375
lfoot -30.2423 14.6597
ltoes -16.5704
1855
root 0.324708 16.5781 0.539821 0.712049 -19.2756 -3.15982
lowerback -2.84214 2.88484 -1.74927
upperback -7.65958 3.93348 2.61214
thorax -6.70404 2.14312 3.58504
lowerneck -1.26383 -15.6747 -21.5624
upperneck 20.3112 -23.213 12.545
head 10.7738 -11.697 4.79236
rclavicle -5.86415e-014 -4.01545e-014
rhumerus -18.0868 38.7697 -113.382
rradius 109.088
rwrist 27.0465
rhand 46.3792 6.9907
rfingers 7.12502
rthumb 67.4219 4.44463
lclavicle -5.86415e-014 -4.01545e-014
lhumerus -31.5062 23.5058 78.813
lradius 137.123
lwrist -16.2084
lhand 33.569 42.8422
lfingers 7.12502
lthumb 56.8839 59.5246
rfemur -12.7471 13.152 20.7076
rtibia 37.8907
rfoot -26.5242 -2.00638
rtoes -21.2956
lfemur -7.95148 0.225987 -18.3211
ltibia 40.4866
lfoot -30.211 14.5506
ltoes -16.5332
1856
root 0.324741 16.5766 0.540542 0.703859 -19.2162 -3.19363
lowerback -2.82048 2.81838 -1.78882
upperback -7.66143 3.84677 2.66506
thorax -6.71866 2.10466 3.66506
lowerneck -0.527193 -16.2033 -21.6806
upperneck 19.7692 -23.9445 12.127
head 10.5364 -12.1038 4.5761
rclavicle -1.91827e-014 1.60022e-014
rhumerus -18.1278 38.8588 -113.474
rradius 109.081
rwrist 27.1205
rhand 46.5013 7.05653
rfingers 7.12502
rthumb 67.5118 4.70939
lclavicle -1.91827e-014 1.60022e-014
lhumerus -31.6322 23.6736 78.7304
lradius 137.187
lwrist -16.1969
lhand 33.553 42.9431
lfingers 7.12502
lthumb 56.8697 59.6372
rfemur -12.7075 13.1272 20.7483
rtibia 37.8908
rfoot -26.5091 -1.99253
rtoes -20.9391
lfemur -7.97026 0.234972 -18.2663
ltibia 40.5229
lfoot -30.1642 14.4623
ltoes -16.3995
1857
root 0.32649 16.5763 0.541379 0.706732 -19.1648 -3.19109
lowerback -2.85588 2.75821 -1.83704
upperback -7.65054 3.76718 2.69813
thorax -6.68611 2.06886 3.73189
lowerneck 0.0839437 -16.655 -21.8572
upperneck 19.3862 -24.5914 11.8329
head 10.3895 -12.4601 4.41978
rclavicle 4.06515e-014 2.09718e-014
rhumerus -18.1027 38.9697 -113.546
rradius 109.022
rwrist 27.1117
rhand 46.3972 7.15867
rfingers 7.12502
rthumb 67.4351 4.64177
lclavicle 4.06515e-014 2.09718e-014
lhumerus -31.7032 23.8123 78.6184
lradius 137.214
lwrist -16.1972
lhand 33.7771 43.0089
lfingers 7.12502
lthumb 57.0669 59.5391
rfemur -12.7036 13.0943 20.7344
rtibia 37.8984
rfoot -26.4667 -1.96377
rtoes -21.0423
lfemur -7.98164 0.25202 -18.2652
ltibia 40.5327
lfoot -30.186 14.4114
ltoes -16.4986
